<svg width="32" height="32" viewBox="0 0 32 32" xmlns="http://www.w3.org/2000/svg">
  <defs>
    <linearGradient id="blueGrad" x1="0%" y1="0%" x2="100%" y2="100%">
      <stop offset="0%" style="stop-color:#1E3A8A;stop-opacity:1" />
      <stop offset="100%" style="stop-color:#1E40AF;stop-opacity:1" />
    </linearGradient>
    <linearGradient id="goldGrad" x1="0%" y1="0%" x2="100%" y2="100%">
      <stop offset="0%" style="stop-color:#D97706;stop-opacity:1" />
      <stop offset="100%" style="stop-color:#F59E0B;stop-opacity:1" />
    </linearGradient>
  </defs>
  
  <!-- Flowing spiritual infinity (gold) - smooth curves -->
  <path d="M 8 16 Q 8 12 12 12 Q 16 12 16 16 Q 16 20 20 20 Q 24 20 24 16 Q 24 12 20 12 Q 16 12 16 16 Q 16 20 12 20 Q 8 20 8 16 Z" 
        fill="none" 
        stroke="url(#goldGrad)" 
        stroke-width="2.5" 
        stroke-linecap="round"/>
  
  <!-- Angular tech infinity (blue) - geometric with sharp transitions -->
  <path d="M 6 16 L 10 12 L 14 12 L 16 14 L 16 16 L 18 18 L 22 18 L 26 14 L 26 12 L 22 16 L 18 16 L 16 18 L 16 16 L 14 14 L 10 14 L 6 18 Z" 
        fill="none" 
        stroke="url(#blueGrad)" 
        stroke-width="2" 
        stroke-linejoin="miter"/>
  
  <!-- Center intersection highlight -->
  <circle cx="16" cy="16" r="1.5" fill="url(#goldGrad)" opacity="0.8"/>
</svg>
